<svg width="406" height="161" viewBox="0 0 406 161" fill="none" xmlns="http://www.w3.org/2000/svg">
<path d="M0.93375 127.76V103.56L72.8738 0.599994H108.734V100.92H128.094V127.76H108.734V159H77.9338V127.76H0.93375ZM79.9138 33.6L34.8138 100.92H79.9138V33.6Z" fill="#BFACF9"/>
<path d="M201.383 160.76C184.37 160.76 171.17 154.38 161.783 141.62C152.543 128.86 147.923 109.573 147.923 83.76C147.923 67.04 150.27 52.4467 154.963 39.98C159.656 27.5133 166.256 17.8333 174.763 10.94C183.27 4.04666 193.17 0.599994 204.463 0.599994C220.45 0.599994 233.063 7.34666 242.303 20.84C251.543 34.1867 256.163 53.18 256.163 77.82C256.163 95.1267 253.816 110.013 249.123 122.48C244.576 134.8 238.123 144.26 229.763 150.86C221.55 157.46 212.09 160.76 201.383 160.76ZM201.383 145.58C212.97 145.58 222.283 139.933 229.323 128.64C236.363 117.2 239.883 100.113 239.883 77.38C239.883 57.4333 236.73 42.18 230.423 31.62C224.116 20.9133 215.463 15.56 204.463 15.56C192.436 15.56 182.756 21.5 175.423 33.38C168.09 45.26 164.423 62.0533 164.423 83.76C164.423 104.733 167.65 120.28 174.103 130.4C180.556 140.52 189.65 145.58 201.383 145.58Z" fill="#F7D56F"/>
<path d="M278.297 127.76V103.56L350.237 0.599994H386.097V100.92H405.457V127.76H386.097V159H355.297V127.76H278.297ZM357.277 33.6L312.177 100.92H357.277V33.6Z" fill="#F2C3D3"/>
</svg>
