<svg width="22" height="23" viewBox="0 0 22 23" fill="none" xmlns="http://www.w3.org/2000/svg">
<path d="M12.0312 1.78125L12.0312 13.4258L16.1133 9.34375C16.5 8.91406 17.1445 8.91406 17.5742 9.34375C17.9609 9.73047 17.9609 10.375 17.5742 10.7617L11.6875 16.6055C11.3008 17.0352 10.6562 17.0352 10.2695 16.6055L4.42578 10.7617C3.99609 10.375 3.99609 9.73047 4.42578 9.34375C4.8125 8.91406 5.45703 8.91406 5.88672 9.34375L9.96875 13.4258L9.96875 1.78125C9.96875 1.22266 10.3984 0.75 11 0.75C11.5586 0.75 12.0312 1.22266 12.0312 1.78125ZM5.5 13.8125L7.5625 15.875H2.75C2.36328 15.875 2.0625 16.2188 2.0625 16.5625L2.0625 20C2.0625 20.3867 2.36328 20.6875 2.75 20.6875L19.25 20.6875C19.5937 20.6875 19.9375 20.3867 19.9375 20V16.5625C19.9375 16.2188 19.5937 15.875 19.25 15.875H14.3945L16.457 13.8125H19.25C20.7539 13.8125 22 15.0586 22 16.5625V20C22 21.5469 20.7539 22.75 19.25 22.75L2.75 22.75C1.20312 22.75 0 21.5469 0 20L0 16.5625C0 15.0586 1.20312 13.8125 2.75 13.8125H5.5ZM18.5625 18.2813C18.5625 18.8828 18.0898 19.3125 17.5312 19.3125C16.9297 19.3125 16.5 18.8828 16.5 18.2813C16.5 17.7227 16.9297 17.25 17.5312 17.25C18.0898 17.25 18.5625 17.7227 18.5625 18.2813Z" fill="#F5F4ED"/>
</svg>
