<svg width="732" height="162" viewBox="0 0 732 162" fill="none" xmlns="http://www.w3.org/2000/svg">
<path d="M0.144297 159V2.79999H36.0043V159H0.144297ZM167.317 33.82H100.657V67.04H162.697V97.84H100.657V159H65.4568V2.79999H167.317V33.82ZM309.976 2.79999L305.356 34.26H258.056V159H221.976V34.26H172.476V2.79999H309.976ZM426.752 33.82H355.032V64.84H422.132V95.86H355.032V127.98H428.952L426.752 159H319.832V2.79999H426.752V33.82ZM582.806 128.42C576.352 138.98 567.479 147.12 556.186 152.84C544.892 158.413 532.352 161.2 518.566 161.2C501.699 161.2 487.252 158.12 475.226 151.96C463.346 145.8 454.179 137 447.726 125.56C441.419 113.973 438.266 100.113 438.266 83.98C438.266 67.4067 441.786 52.8867 448.826 40.42C455.866 27.9533 465.619 18.2 478.086 11.16C490.699 4.11999 505.219 0.599994 521.646 0.599994C536.019 0.599994 548.119 3.23999 557.946 8.52C567.919 13.8 576.279 21.7933 583.026 32.5L555.526 52.08C552.006 45.3333 547.166 40.42 541.006 37.34C534.846 34.26 528.246 32.72 521.206 32.72C511.966 32.72 503.899 34.8467 497.006 39.1C490.112 43.3533 484.686 49.2933 480.726 56.92C476.912 64.5467 475.006 73.3467 475.006 83.32C475.006 97.84 478.819 109.133 486.446 117.2C494.072 125.267 504.852 129.3 518.786 129.3C526.266 129.3 533.306 127.54 539.906 124.02C546.652 120.353 552.079 114.853 556.186 107.52L582.806 128.42ZM594.617 159V2.79999H630.477V64.62H695.817V2.79999H731.897V159H695.817V96.08H630.477V159H594.617Z" fill="#101011"/>
</svg>
